# Blender v2.78 (sub 0) OBJ File: 'hitler.obj'
# www.blender.org
mtllib hitler_head_collider.mtl
o Default
v 1.994600 8.642906 3.825712
v -1.292700 8.760109 4.284712
v -0.155600 6.533508 5.444312
v -0.185600 6.377205 5.400412
v 0.001200 6.572502 5.459012
v 0.155500 6.533508 5.444312
v 0.185500 6.377205 5.400412
v 2.253400 8.486603 3.549812
v 1.959200 4.072502 3.193411
v 2.003100 3.877205 2.963911
v 1.855500 2.744408 1.250011
v 1.340300 2.471008 1.878711
v 0.563000 2.275703 2.368211
v 2.398700 3.525703 -0.378989
v -0.001300 2.197609 2.420611
v -0.563000 2.275703 2.368211
v 2.283900 3.994408 -1.414789
v 1.953100 4.267906 -2.112989
v 1.115700 4.463203 -2.670889
v 2.271700 6.806908 -2.846688
v -0.001300 8.252205 -3.759788
v 2.098400 7.666306 -3.268988
v 0.832500 8.525703 -3.698688
v -0.001300 9.463203 -3.676788
v 2.038500 8.603806 -3.403288
v -0.001300 10.166306 -3.417988
v 1.682100 9.541306 -3.403288
v 0.821500 10.752205 -3.010188
v 1.552700 10.674103 -2.922388
v 2.252200 9.736603 -3.090788
v 2.247300 10.322502 -2.822288
v 2.631800 9.892906 -2.700188
v 2.626900 8.955406 -2.949188
v 2.802700 7.666306 -2.575688
v 3.112800 10.088203 -1.535588
v 2.308300 11.103806 -1.956788
v 2.790500 11.181908 -0.938088
v 2.249700 11.650703 -1.022987
v 2.712400 11.416306 -0.255688
v 1.541700 11.455406 -2.119188
v 0.801400 12.080406 -1.374488
v -0.001300 11.924103 -1.768788
v -0.814200 11.494408 -2.297388
v -0.759300 12.197502 -1.049187
v -1.289100 12.236603 -0.441887
v -0.001300 12.392906 -0.673187
v -1.635800 12.158508 0.423913
v -1.679700 11.963203 1.474612
v -0.634200 12.431908 -0.148787
v -0.962500 12.197502 1.726113
v -0.001300 12.510109 0.129713
v 0.719600 12.392906 -0.475787
v 1.337900 12.314705 -0.309787
v 0.794700 12.431908 0.534713
v 2.135000 11.963203 -0.221887
v 1.405000 12.236603 1.010113
v 0.001200 11.885109 2.873513
v 0.673800 11.806908 2.844213
v 1.328100 11.650703 2.675812
v 2.053200 11.924103 0.877113
v 2.673300 11.377205 0.718412
v 1.939700 11.338203 2.481712
v 2.500000 11.181908 1.666212
v 2.844200 10.244408 2.022712
v 2.434100 10.517906 2.607412
v 1.886000 11.025703 2.915012
v 1.229800 11.025703 3.486312
v 1.489200 11.338203 3.005412
v 0.594800 11.181908 3.625512
v 0.001200 11.416306 3.474113
v 0.001200 10.947502 3.759812
v -0.756900 11.455406 3.254412
v -0.781900 11.806908 2.714813
v -1.439200 11.455406 2.834512
v -2.253400 8.486603 3.549812
v -1.994600 8.642906 3.825712
v -2.885800 10.439705 1.715112
v -2.973600 10.713203 1.145612
v -2.678200 11.338203 0.059212
v -3.044400 10.869408 -0.192088
v 1.378100 4.892906 4.189412
v -1.378200 4.892906 4.189412
v 0.811100 3.525703 4.314011
v 0.401000 3.369408 4.433611
v 0.866100 3.369408 4.165011
v -0.001300 3.213203 4.357911
v 0.855700 3.213203 3.950211
v -0.401000 3.369408 4.433611
v -0.855700 3.213203 3.950211
v -0.866100 3.369408 4.165011
v -0.811200 3.525703 4.314011
v -1.959200 4.072502 3.193411
v -2.003200 3.877205 2.963911
v -1.340300 2.471008 1.878711
v -1.855500 2.744408 1.250011
v -2.398700 3.525703 -0.378989
v -2.283900 3.994408 -1.414789
v -1.953100 4.267906 -2.112989
v -1.115700 4.463203 -2.670889
v -1.051600 7.549103 -3.630388
v -2.277800 7.939705 -3.244588
v -0.798300 8.525703 -3.747588
v -3.007800 8.056908 -2.464588
v -0.834400 9.463203 -3.642588
v -2.165500 8.838203 -3.359388
v -1.949500 9.580406 -3.330088
v -2.829600 8.994408 -2.761188
v -1.823700 10.556908 -2.873488
v -2.663600 9.814705 -2.753888
v -2.048300 11.103806 -2.232688
v -2.373000 10.596008 -2.519488
v -3.156700 10.127205 -1.812788
v -2.946800 10.830406 -1.439188
v -2.551300 11.377205 -1.107188
v -3.850100 7.744408 -0.369588
v -3.884300 7.588203 -0.633588
v -3.881800 7.275703 -0.822188
v -3.698700 7.627205 0.090412
v -3.835400 6.924103 -0.825788
v -3.530300 5.830406 -0.389088
v 3.884300 7.588203 -0.633588
v 3.881800 7.275703 -0.822188
v 3.835400 6.924103 -0.825788
v 3.642500 6.142906 -0.552688
v 3.530300 5.830406 -0.389088
vt 0.4402 -0.4885
vt 0.2964 -0.5610
vt 0.4343 -0.8013
vt 0.4719 -0.7417
vt 0.5181 -0.6343
vt 0.0000 0.0000
vt 0.2903 -0.6846
vt 0.6167 -0.8193
vt 0.7354 -0.8696
vt 0.7539 -0.6846
vt 0.5186 -0.6270
vt 0.4524 -0.4810
vt 0.4275 -0.8193
vt 0.2705 -0.6167
vt 0.5264 -0.6343
vt 0.5557 -0.8486
vt 0.5723 -0.7417
vt 0.6592 -0.9214
vt 0.2808 -0.5591
vt 0.2732 -0.5723
vt 0.2690 -0.5947
vt 0.6045 -0.4885
vt 0.0000 0.0000
vt 0.4856 -0.8589
vt 0.6104 -0.8013
vt 0.5259 -0.6270
vt 0.3762 -0.3193
vt 0.5591 -0.8589
vt 0.7612 -0.6646
vt 0.7754 -0.8550
vt 0.0000 0.0000
vt 0.7739 -0.6167
vt 0.7710 -0.5723
vt 0.6733 -0.3491
vt 0.7295 -0.2903
vt 0.6958 -0.2910
vt 0.6528 -0.3201
vt 0.5923 -0.4810
vt 0.7275 -0.2494
vt 0.7261 -0.2151
vt 0.6685 -0.2625
vt 0.1808 -0.5186
vt 0.1388 -0.5093
vt 0.1538 -0.5513
vt 0.8477 -0.5928
vt 0.8530 -0.6812
vt 0.8770 -0.6338
vt 0.6484 -0.2717
vt 0.6509 -0.2400
vt 0.6284 -0.2343
vt 0.6650 -0.0666
vt 0.6489 -0.1061
vt 0.6724 -0.1050
vt 0.4829 -0.8711
vt 0.4780 -0.9756
vt 0.0000 0.0000
vt 0.2050 -0.8696
vt 0.2400 -0.8521
vt 0.1707 -0.6064
vt 0.2690 -0.8550
vt 0.8516 -0.3372
vt 0.8164 -0.2944
vt 0.8467 -0.3782
vt 0.6392 -0.1517
vt 0.6182 -0.1552
vt 0.8804 -0.5303
vt 0.8936 -0.4658
vt 0.7754 -0.5947
vt 0.7842 -0.1534
vt 0.7710 -0.1200
vt 0.7593 -0.1481
vt 0.7749 -0.1853
vt 0.8032 -0.1987
vt 0.9063 -0.4976
vt 0.8960 -0.5781
vt 0.0000 0.0000
vt 0.4260 -0.9468
vt 0.3850 -0.9214
vt 0.5615 -0.8711
vt 0.5664 -0.9756
vt 0.5220 -0.6265
vt 0.6187 -0.9468
vt 0.4788 -0.4766
vt 0.1284 -0.4351
vt 0.1648 -0.4707
vt 0.3528 -0.2969
vt 0.7188 -0.0591
vt 0.7437 -0.1848
vt 0.6646 -0.1854
vt 0.6660 -0.1479
vt 0.5039 -0.8613
vt 0.5405 -0.8613
vt 0.8491 -0.1321
vt 0.0000 0.0000
vt 0.7861 -0.2693
vt 0.7817 -0.3052
vt 0.9146 -0.4543
vt 0.9219 -0.5332
vt 0.9424 -0.4556
vt 0.7095 -0.0966
vt 0.0000 0.0000
vt 0.0000 0.0000
vt 0.7563 -0.0667
vt 0.7607 -0.2908
vt 0.8027 -0.3721
vt 0.6665 -0.2234
vt 0.7617 -0.2529
vt 0.7671 -0.2130
vt 0.0889 -0.6475
vt 0.1111 -0.6074
vt 0.9741 -0.5952
vt 0.9321 -0.6265
vt 0.0000 0.0000
vt 0.8213 -0.1656
vt 0.8252 -0.2520
vt 0.8696 -0.2427
vt 0.7842 -0.0899
vt 0.2073 -0.2620
vt 0.2983 -0.2698
vt 0.1010 -0.5400
vt 0.2209 -0.3103
vt 0.1932 -0.4221
vt 0.9541 -0.6709
vt 0.8394 -0.8696
vt 0.1742 -0.3167
vt 0.1854 -0.3665
vt 0.3127 -0.2267
vt 0.1340 -0.6694
vt 0.6274 -0.1918
vt 0.5220 -0.8696
vt 0.5220 -0.9854
vt 0.0643 -0.5010
vt 0.8047 -0.8521
vt 0.1399 -0.3770
vt 0.1505 -0.4187
vt 0.4888 -0.8486
vt 0.9688 -0.4719
vt 0.8013 -0.1206
vt 0.0000 0.0000
vt 0.2053 -0.5674
vt 0.0062 0.2343
vt 0.0029 0.1894
vt 0.0132 0.2578
vt 0.0231 0.2712
vt 0.0581 0.2723
vt 0.0000 0.0000
vt 0.8599 -0.2871
vt 0.3093 -0.8696
vt 0.0723 -0.5596
vt 0.0000 0.0000
vt 0.0000 0.0000
vn -0.9100 -0.1514 0.3860
vn -0.8462 -0.1407 0.5139
vn -0.9138 -0.0702 0.4001
vn -0.6879 -0.0386 0.7247
vn -0.6967 -0.0441 0.7160
vn -0.5883 -0.1720 0.7901
vn -0.5920 -0.1838 0.7847
vn -0.8893 0.0246 0.4567
vn -0.9385 -0.1585 0.3066
vn -0.8912 -0.3031 0.3374
vn 0.8902 -0.4349 0.1361
vn 0.8783 -0.1649 0.4488
vn 0.7508 -0.6278 0.2053
vn -0.7060 -0.0538 0.7062
vn -0.7449 -0.0126 0.6670
vn -0.6777 -0.0908 0.7297
vn -0.8149 -0.2680 0.5139
vn -0.9303 -0.1580 0.3310
vn -0.9382 -0.1689 0.3020
vn -0.8889 -0.0961 0.4480
vn -0.9764 0.0734 0.2030
vn -0.9466 -0.2670 0.1807
vn 0.5915 -0.1823 0.7854
vn 0.6085 -0.1112 0.7858
vn 0.5883 -0.1720 0.7901
vn 0.9279 -0.3485 0.1326
vn 0.9984 0.0457 0.0329
vn 0.7633 -0.3989 0.5082
vn -0.9714 -0.2041 0.1216
vn -0.9014 -0.3484 0.2570
vn -0.8893 -0.1629 0.4272
vn -0.9740 -0.1911 0.1219
vn -0.9149 -0.1439 0.3771
vn -0.9586 0.0719 0.2756
vn -0.6886 -0.1066 0.7173
vn -0.7060 -0.0742 0.7043
vn -0.7139 -0.0657 0.6972
vn 0.6878 -0.0706 0.7225
vn 0.7060 -0.0742 0.7043
vn 0.7128 -0.0669 0.6981
vn -0.7451 -0.3046 0.5933
vn -0.7355 -0.3140 0.6003
vn -0.7186 -0.3223 0.6162
vn 0.7345 -0.2470 0.6320
vn 0.7761 -0.2211 0.5906
vn 0.7228 -0.2363 0.6494
vn -0.8143 -0.0819 0.5747
vn -0.8801 -0.0713 0.4695
vn -0.8073 -0.1587 0.5683
vn -0.7346 -0.2470 0.6320
vn -0.7219 -0.2365 0.6503
vn 0.6879 -0.0386 0.7247
vn 0.6741 -0.0573 0.7364
vn 0.6956 -0.0434 0.7172
vn 0.7004 -0.0652 0.7108
vn 0.7761 -0.0242 0.6302
vn 0.7053 -0.0553 0.7068
vn -0.9471 0.0481 0.3173
vn -0.9296 -0.0098 0.3683
vn -0.8706 0.1219 0.4767
vn -0.8858 -0.3165 0.3395
vn -0.9380 -0.0504 0.3430
vn -0.9756 -0.1834 0.1207
vn 0.7386 -0.2993 0.6040
vn 0.7193 -0.3216 0.6157
vn 0.7540 -0.3534 0.5536
vn 0.9285 -0.2173 -0.3013
vn 0.6396 -0.7379 -0.2154
vn 0.5777 -0.6544 -0.4878
vn 0.9482 -0.2920 -0.1249
vn 0.9990 0.0313 0.0313
vn 0.8843 0.2876 0.3677
vn 0.8584 0.4926 0.1429
vn 0.7604 0.5676 0.3155
vn 0.7827 0.3223 0.5325
vn 0.5676 0.2847 0.7725
vn 0.8784 0.0355 0.4767
vn -0.8502 0.4464 0.2790
vn -0.7577 0.2938 0.5827
vn -0.6599 0.3357 0.6722
vn 0.5722 0.7998 0.1814
vn 0.2980 0.9247 0.2369
vn 0.6215 0.6498 0.4377
vn -0.7771 0.0569 -0.6268
vn -0.4014 0.2218 -0.8886
vn -0.4898 0.0529 -0.8702
vn 0.7762 -0.1393 -0.6149
vn 0.6036 -0.2698 -0.7503
vn 0.4428 -0.1550 -0.8831
vn 0.6584 0.4499 0.6034
vn 0.4906 0.6923 0.5291
vn 0.3455 0.4605 0.8176
vn -0.5886 0.6161 0.5234
vn -0.3488 0.6276 0.6960
vn -0.2576 0.8563 0.4478
vn -0.5135 -0.7572 0.4038
vn -0.1940 -0.9371 -0.2902
vn 0.4332 -0.8811 -0.1895
vn 0.2369 -0.6720 -0.7017
vn -0.3403 -0.8643 -0.3704
vn -0.5240 -0.1958 -0.8289
vn -0.5833 -0.7845 -0.2104
vn -0.7921 -0.5927 -0.1461
vn -0.8142 -0.2207 -0.5369
vn 0.4581 0.4726 -0.7528
vn 0.5910 0.6481 -0.4803
vn 0.7991 0.2384 -0.5519
vn -0.0455 0.6588 0.7509
vn -0.2229 0.4137 0.8827
vn 0.7249 0.0738 -0.6849
vn 0.9816 -0.1698 -0.0869
vn -0.0421 0.9675 -0.2494
vn -0.1746 0.9818 -0.0747
vn -0.0082 0.9994 0.0325
vn 0.1022 0.9744 -0.2005
vn 0.1740 0.8872 -0.4272
vn 0.5238 0.2440 -0.8162
vn 0.5002 -0.0444 -0.8648
vn 0.8213 -0.1001 0.5616
vn 0.8639 -0.2595 0.4318
vn -0.4312 -0.8550 -0.2882
vn -0.6932 -0.5600 0.4537
vn -0.4625 -0.5049 -0.7288
vn -0.7421 -0.5622 0.3651
vn 0.4574 -0.7624 0.4577
vn 0.4901 -0.8367 -0.2445
vn 0.7956 -0.4308 0.4260
vn -0.1124 0.2047 0.9723
vn 0.0353 -0.0191 0.9992
vn 0.3431 -0.7081 0.6172
vn -0.3342 0.2642 0.9047
vn -0.1095 0.1663 0.9800
vn -0.3108 0.5581 -0.7693
vn -0.6756 0.2842 -0.6803
vn -0.9039 0.3892 0.1777
vn -0.5534 0.7996 0.2333
vn 0.1435 0.9829 0.1150
vn 0.2037 0.8485 0.4883
vn -0.0027 0.8700 0.4931
vn 0.9951 -0.0938 -0.0307
vn -0.2307 -0.5480 0.8040
vn 0.2092 -0.5692 0.7951
vn 0.0177 -0.2881 0.9575
vn -0.1559 0.7512 -0.6414
vn 0.0011 0.4980 -0.8672
vn -0.9115 0.3303 0.2450
vn 0.5131 0.7903 -0.3350
vn 0.8313 0.5295 -0.1692
vn 0.2726 0.2263 -0.9351
vn 0.2550 0.5753 -0.7772
vn -0.1970 0.9469 0.2540
vn -0.8272 -0.0428 -0.5603
vn -0.8339 -0.0868 -0.5450
vn -0.4473 0.8943 -0.0112
vn 0.8595 0.5097 -0.0384
vn 0.9268 0.3129 -0.2077
vn 0.4385 0.8094 0.3906
vn 0.5152 0.8538 -0.0752
vn 0.2911 0.9444 -0.1528
vn 0.0470 -0.0753 -0.9960
vn -0.1682 -0.0362 -0.9851
vn -0.0012 0.1796 -0.9837
vn 0.1802 -0.0436 -0.9827
vn -0.0024 0.8483 -0.5295
vn 0.3151 0.7448 -0.5882
vn 0.1134 0.5461 -0.8300
vn -0.3568 0.9158 -0.1843
vn -0.7122 0.6999 0.0539
vn -0.8883 0.4587 0.0235
vn -0.1461 0.2807 -0.9486
vn -0.9177 0.3793 0.1185
vn -0.8749 0.3306 -0.3538
vn -0.0101 -0.2845 0.9586
vn 0.6242 -0.5073 -0.5942
vn -0.6128 0.7640 -0.2020
vn -0.8028 0.5327 -0.2677
vn 0.0666 -0.6528 -0.7546
vn -0.1939 -0.1835 -0.9637
vn 0.2425 0.4560 0.8563
vn 0.0238 -0.7328 0.6800
vn -0.8620 0.3309 -0.3840
vn 0.4771 -0.6914 0.5425
vn 0.3684 -0.3632 0.8558
vn -0.4026 0.7724 -0.4913
vn -0.5141 0.5146 -0.6863
vn -0.4713 -0.6755 0.5670
vn -0.3526 -0.4663 0.8113
vn -0.2438 0.8971 -0.3685
vn -0.7123 -0.4886 0.5040
vn -0.5548 -0.6364 -0.5359
usemtl material_0
s off
f 75/1/1 118/2/2 92/3/3
f 75/1/4 82/4/4 4/5/5
f 91/6/6 4/5/7 82/4/6
f 120/7/8 92/3/9 118/2/10
f 10/8/11 14/9/12 125/10/13
f 4/5/14 3/11/15 76/12/16
f 120/7/17 93/13/18 92/3/19
f 119/14/20 120/7/21 118/2/22
f 7/15/23 83/16/24 81/17/25
f 10/8/26 11/18/27 14/9/28
f 118/2/29 115/19/30 116/20/31
f 118/2/32 117/21/33 119/14/34
f 76/12/35 75/1/36 4/5/37
f 8/22/38 1/23/39 7/15/40
f 90/24/41 91/6/42 92/3/43
f 81/17/44 83/16/45 9/25/46
f 92/3/47 82/4/48 75/1/49
f 82/4/50 92/3/51 91/6/50
f 81/17/52 8/22/53 7/15/54
f 1/23/55 6/26/56 7/15/57
f 75/1/58 77/27/59 118/2/60
f 116/20/61 117/21/62 118/2/63
f 85/28/64 9/25/65 83/16/66
usemtl Head
s 1
f 124/29/67 17/30/68 18/31/69
f 124/29/67 123/32/70 121/33/71
f 64/34/72 61/35/73 63/36/74
f 65/37/75 1/38/76 8/22/77
f 77/27/78 75/1/79 76/12/80
f 60/39/81 56/40/82 62/41/83
f 107/42/84 106/43/85 105/44/86
f 34/45/87 20/46/88 22/47/89
f 66/48/90 68/49/91 67/50/92
f 74/51/93 72/52/94 73/53/95
f 89/54/96 16/55/97 15/56/98
f 99/57/99 98/58/100 101/59/101
f 97/60/102 120/7/103 119/14/104
f 31/61/105 36/62/106 32/63/107
f 70/64/108 72/52/94 71/65/109
f 77/27/78 76/12/80 74/51/93
f 33/66/110 32/67/107 122/68/111
f 46/69/112 49/70/113 51/71/114
f 52/72/115 41/73/116 46/69/112
f 30/74/117 33/66/110 25/75/118
f 8/76/77 81/17/119 9/25/120
f 11/18/121 94/77/122 95/78/123
f 93/13/124 95/78/123 94/77/122
f 22/47/89 25/75/118 34/45/87
f 87/79/125 13/80/126 10/8/127
f 71/65/109 5/81/128 6/26/129
f 11/18/121 12/82/130 94/77/122
f 2/83/131 76/12/80 3/11/132
f 108/84/133 106/43/85 109/85/134
f 78/86/135 77/27/78 48/87/136
f 56/40/82 54/88/137 58/89/138
f 74/51/93 76/12/80 2/83/131
f 57/90/139 72/52/94 70/64/108
f 57/90/139 58/89/138 54/88/137
f 125/10/140 121/33/71 8/76/77
f 88/91/141 84/92/142 7/15/143
f 43/93/144 26/94/145 108/84/133
f 118/2/146 77/27/78 78/86/135
f 38/95/147 37/96/148 36/62/106
f 31/97/105 27/98/149 29/99/150
f 50/100/151 48/87/136 74/51/93
f 119/101/104 117/21/152 103/102/153
f 25/75/118 27/98/149 30/74/117
f 74/51/93 73/53/95 50/100/151
f 49/70/113 47/103/154 50/100/151
f 37/96/148 39/104/155 35/105/156
f 56/40/82 58/89/138 59/106/157
f 55/107/158 38/95/147 53/108/159
f 21/109/160 102/110/161 24/111/162
f 77/27/78 74/51/93 48/87/136
f 34/45/87 123/32/70 20/46/88
f 9/25/120 10/8/127 125/10/140
f 48/87/136 50/100/151 47/103/154
f 23/112/163 21/109/160 24/111/162
f 62/41/83 63/36/74 60/39/81
f 74/51/93 2/83/131 72/52/94
f 35/105/156 121/113/71 32/63/107
f 61/35/73 39/104/155 55/107/158
f 68/49/91 66/48/90 62/41/83
f 42/114/164 40/115/165 28/116/166
f 45/117/167 79/118/168 47/103/154
f 118/2/146 78/86/135 80/119/169
f 30/74/117 31/97/105 32/67/107
f 102/110/161 104/120/170 24/111/162
f 115/19/171 80/121/169 112/122/172
f 51/71/114 54/88/137 52/72/115
f 5/81/128 4/5/173 7/15/143
f 21/123/160 23/112/163 19/124/174
f 5/81/128 71/65/109 2/83/131
f 80/119/169 114/125/175 113/126/176
f 48/87/136 47/103/154 79/127/168
f 19/124/174 22/47/89 20/46/88
f 54/88/137 56/40/82 53/108/159
f 125/10/140 14/9/177 17/30/68
f 20/46/88 123/32/70 124/29/67
f 65/37/75 8/22/77 64/34/72
f 100/128/178 102/110/161 21/123/160
f 17/30/68 14/9/177 19/124/174
f 67/50/92 69/129/179 71/65/109
f 32/67/107 33/66/110 30/74/117
f 80/119/169 78/86/135 79/118/168
f 87/79/125 86/130/180 15/131/98
f 8/76/77 9/25/120 125/10/140
f 53/108/159 38/95/147 41/73/116
f 12/82/130 10/8/127 13/80/126
f 116/20/181 115/19/171 112/122/172
f 122/68/111 34/45/87 33/66/110
f 108/84/133 26/132/145 104/120/170
f 46/69/112 41/73/116 42/114/164
f 27/98/149 25/75/118 23/112/163
f 121/33/71 64/34/72 8/76/77
f 19/124/174 18/133/69 17/30/68
f 85/28/182 83/16/183 84/92/142
f 71/65/109 69/129/179 70/64/108
f 121/113/71 35/105/156 64/34/72
f 22/47/89 19/124/174 23/112/163
f 87/79/125 84/92/142 86/130/180
f 113/126/176 110/134/184 111/135/185
f 19/124/174 20/46/88 18/31/69
f 61/35/73 64/34/72 35/105/156
f 90/24/186 88/91/141 91/136/187
f 67/50/92 6/26/129 1/38/76
f 125/10/140 124/29/67 121/33/71
f 42/114/164 41/73/116 40/115/165
f 70/64/108 69/129/179 58/89/138
f 28/137/166 29/99/150 27/98/149
f 60/39/81 55/107/158 53/108/159
f 44/138/188 42/114/164 43/139/144
f 79/118/168 114/125/175 80/119/169
f 117/21/152 116/20/181 103/102/153
f 123/32/70 122/68/111 121/33/71
f 125/10/140 17/30/68 124/29/67
f 94/77/122 16/55/97 93/13/124
f 107/42/84 101/59/101 103/140/153
f 72/52/94 2/83/131 71/65/109
f 89/54/96 86/130/180 88/91/141
f 16/141/97 94/142/122 15/143/98
f 13/144/126 15/143/98 12/145/130
f 59/106/157 58/89/138 68/49/91
f 112/122/172 109/85/134 107/42/84
f 84/92/142 83/16/183 7/146/143
f 89/54/96 90/24/186 92/3/189
f 65/37/75 66/48/90 67/50/92
f 26/94/145 28/137/166 27/98/149
f 104/120/170 106/43/85 108/84/133
f 45/117/167 49/70/113 44/138/188
f 40/115/165 29/147/150 28/116/166
f 97/60/102 119/101/104 98/58/100
f 84/92/142 88/91/141 86/130/180
f 44/138/188 49/70/113 46/69/112
f 52/72/115 54/88/137 53/108/159
f 88/91/141 4/5/173 91/136/187
f 24/111/162 26/94/145 27/98/149
f 89/54/96 15/56/98 86/130/180
f 38/95/147 55/107/158 39/104/155
f 9/25/120 85/28/182 87/79/125
f 113/126/176 112/122/172 80/121/169
f 43/93/144 28/137/166 26/94/145
f 96/148/190 93/13/124 120/7/103
f 101/59/101 98/58/100 103/140/153
f 65/37/75 64/34/72 63/36/74
f 3/11/132 4/5/173 5/81/128
f 67/50/92 68/49/91 58/89/138
f 70/64/108 58/89/138 57/90/139
f 6/26/129 67/50/92 71/65/109
f 24/111/162 27/98/149 23/112/163
f 7/15/143 6/26/129 5/81/128
f 96/148/190 99/57/99 19/124/174
f 51/71/114 50/100/151 54/88/137
f 65/37/75 62/41/83 66/48/90
f 110/134/184 108/84/133 111/135/185
f 87/79/125 15/131/98 13/80/126
f 59/106/157 62/41/83 56/40/82
f 32/63/107 37/96/148 35/105/156
f 14/9/177 11/18/121 96/148/190
f 80/119/169 115/19/171 118/2/146
f 38/95/147 39/104/155 37/96/148
f 61/35/73 35/105/156 39/104/155
f 69/129/179 67/50/92 58/89/138
f 19/124/174 14/9/177 96/148/190
f 110/134/184 43/139/144 108/84/133
f 37/96/148 32/63/107 36/62/106
f 108/84/133 109/85/134 111/135/185
f 112/122/172 111/135/185 109/85/134
f 73/53/95 57/90/139 50/100/151
f 41/73/116 52/72/115 53/108/159
f 105/44/86 106/43/85 104/120/170
f 26/132/145 24/149/162 104/120/170
f 44/138/188 114/150/175 45/117/167
f 95/78/123 96/148/190 11/18/121
f 88/91/141 7/15/143 4/5/173
f 87/79/125 85/28/182 84/92/142
f 122/68/111 123/32/70 34/45/87
f 57/90/139 73/53/95 72/52/94
f 32/63/107 121/113/71 122/68/111
f 61/35/73 60/39/81 63/36/74
f 60/39/81 53/108/159 56/40/82
f 113/126/176 114/125/175 110/134/184
f 15/143/98 94/77/122 12/82/130
f 89/54/96 88/91/141 90/24/186
f 28/116/166 43/93/144 42/114/164
f 119/101/104 103/140/153 98/58/100
f 36/62/106 29/99/150 40/115/165
f 67/50/92 1/38/76 65/37/75
f 97/60/102 99/57/99 96/148/190
f 107/42/84 103/102/153 112/122/172
f 112/122/172 113/126/176 111/135/185
f 101/59/101 105/44/86 102/110/161
f 112/122/172 103/102/153 116/20/181
f 18/31/69 20/46/88 124/29/67
f 92/3/189 93/13/124 89/54/96
f 44/138/188 110/134/184 114/150/175
f 22/47/89 23/112/163 25/75/118
f 2/83/131 3/11/132 5/81/128
f 45/117/167 47/103/154 49/70/113
f 89/54/96 93/13/124 16/55/97
f 21/123/160 19/124/174 100/128/178
f 96/148/190 95/78/123 93/13/124
f 98/151/100 99/57/99 97/60/102
f 52/72/115 46/69/112 51/71/114
f 30/74/117 27/98/149 31/97/105
f 54/88/137 50/100/151 57/90/139
f 19/124/174 99/57/99 100/128/178
f 40/115/165 41/73/116 38/95/147
f 107/42/84 105/44/86 101/59/101
f 11/18/121 10/8/127 12/82/130
f 107/42/84 109/85/134 106/43/85
f 44/138/188 43/139/144 110/134/184
f 100/128/178 101/59/101 102/110/161
f 9/25/120 87/79/125 10/8/127
f 36/62/106 31/97/105 29/99/150
f 25/75/118 33/66/110 34/45/87
f 55/107/158 60/39/81 61/35/73
f 99/57/99 101/59/101 100/128/178
f 68/49/91 62/41/83 59/106/157
f 63/36/74 62/41/83 65/37/75
f 97/60/102 96/148/190 120/7/103
f 45/117/167 114/125/175 79/118/168
f 42/114/164 44/138/188 46/69/112
f 48/87/136 79/127/168 78/86/135
f 51/71/114 49/70/113 50/100/151
f 36/62/106 40/115/165 38/95/147
f 104/120/170 102/110/161 105/44/86
