# 3ds Max Wavefront OBJ Exporter v0.97b - (c)2007 guruware
# File Created: 20.10.2016 15:20:52

mtllib ladekast.mtl

#
# object kastje
#

v  18.5597 0.0000 7.7153
v  -17.5363 0.0000 7.7153
v  -17.5363 0.0000 -17.7153
v  18.5597 0.0000 -17.7153
v  18.5597 30.0000 -17.7153
v  -17.5363 30.0000 -17.7153
v  -17.5363 30.0000 7.7153
v  18.5597 30.0000 7.7153
v  17.9096 14.3499 -18.3337
v  -16.8862 14.3499 -18.3337
v  -16.8862 9.1943 -18.3337
v  17.9096 9.1943 -18.3337
v  20.5117 15.0000 7.7153
v  20.5117 15.0000 -17.7153
v  20.5117 21.4558 -17.7153
v  20.5117 21.4558 7.7153
v  -17.5363 15.0000 -20.0000
v  18.5597 15.0000 -20.0000
v  18.5597 8.5442 -20.0000
v  -17.5363 8.5442 -20.0000
v  -19.4883 15.0000 -17.7153
v  -19.4883 15.0000 7.7153
v  -19.4883 21.4558 7.7153
v  -19.4883 21.4558 -17.7153
v  20.5117 0.0000 7.7153
v  20.5117 0.0000 -17.7153
v  -19.4883 0.0000 -17.7153
v  -19.4883 0.0000 7.7153
v  20.5117 30.0000 -17.7153
v  20.5117 30.0000 7.7153
v  -19.4883 30.0000 7.7153
v  -19.4883 30.0000 -17.7153
v  20.5117 15.0000 10.0000
v  18.5597 15.0000 10.0000
v  18.5597 8.5442 10.0000
v  20.5117 8.5442 10.0000
v  -19.4883 15.0000 10.0000
v  -17.5363 15.0000 10.0000
v  -17.5363 21.4558 10.0000
v  -19.4883 21.4558 10.0000
v  -19.4883 15.0000 -20.0000
v  -19.4883 8.5442 -20.0000
v  20.5117 15.0000 -20.0000
v  18.5597 21.4558 -20.0000
v  20.5117 21.4558 -20.0000
v  18.5597 30.0000 10.0000
v  -17.5363 30.0000 10.0000
v  -17.5363 28.4172 10.0000
v  18.5597 28.4172 10.0000
v  -18.1946 0.0000 10.0000
v  17.9014 0.0000 10.0000
v  18.5597 1.5828 10.0000
v  -17.5363 1.5828 10.0000
v  20.5117 28.4172 7.7153
v  20.5117 28.4172 -17.7153
v  20.5117 1.5828 -17.7153
v  20.5117 1.5828 7.7153
v  -17.5363 30.0000 -20.0000
v  18.5597 30.0000 -20.0000
v  18.5597 28.4172 -20.0000
v  -17.5363 28.4172 -20.0000
v  18.5597 0.0000 -20.0000
v  -17.5363 0.0000 -20.0000
v  -17.5363 1.5828 -20.0000
v  18.5597 1.5828 -20.0000
v  -19.4883 28.4172 -17.7153
v  -19.4883 28.4172 7.7153
v  -19.4883 1.5828 7.7153
v  -19.4883 1.5828 -17.7153
v  20.5117 30.0000 10.0000
v  20.5117 28.4172 10.0000
v  20.5117 0.0000 10.0000
v  20.5117 1.5828 10.0000
v  -19.4883 0.0000 10.0000
v  -19.4883 1.5828 10.0000
v  -19.4883 30.0000 10.0000
v  -19.4883 28.4172 10.0000
v  -19.4883 30.0000 -20.0000
v  -19.4883 28.4172 -20.0000
v  -19.4883 0.0000 -20.0000
v  -19.4883 1.5828 -20.0000
v  20.5117 0.0000 -20.0000
v  20.5117 1.5828 -20.0000
v  20.5117 30.0000 -20.0000
v  20.5117 28.4172 -20.0000
v  20.5117 21.4558 10.0000
v  20.5117 8.5442 -17.7153
v  20.5117 8.5442 -20.0000
v  -19.4883 21.4558 -20.0000
v  -19.4883 8.5442 7.7153
v  -19.4883 8.5442 10.0000
v  -17.5363 27.9116 10.0000
v  18.5597 27.9116 10.0000
v  17.9096 27.2615 -18.3337
v  -16.8862 27.2615 -18.3337
v  -16.8862 22.1059 -18.3337
v  17.9096 22.1059 -18.3337
v  17.9096 20.8057 -18.3337
v  -16.8862 20.8057 -18.3337
v  -16.8862 15.6501 -18.3337
v  17.9096 15.6501 -18.3337
v  18.5597 2.0884 10.0000
v  -17.5363 2.0884 10.0000
v  -16.8862 2.7385 -18.3337
v  17.9096 2.7385 -18.3337
v  17.9096 7.8941 -18.3337
v  -16.8862 7.8941 -18.3337
v  20.5117 2.0884 -17.7153
v  20.5117 2.0884 7.7153
v  20.5117 8.5442 7.7153
v  20.5117 27.9116 7.7153
v  20.5117 27.9116 -17.7153
v  18.5597 27.9116 -20.0000
v  -17.5363 27.9116 -20.0000
v  -17.5363 21.4558 -20.0000
v  -17.5363 2.0884 -20.0000
v  18.5597 2.0884 -20.0000
v  -19.4883 2.0884 7.7153
v  -19.4883 2.0884 -17.7153
v  -19.4883 8.5442 -17.7153
v  -19.4883 27.9116 -17.7153
v  -19.4883 27.9116 7.7153
v  20.5117 27.9116 10.0000
v  18.5597 21.4558 10.0000
v  20.5117 2.0884 10.0000
v  -19.4883 2.0884 10.0000
v  -17.5363 8.5442 10.0000
v  -19.4883 27.9116 10.0000
v  -19.4883 27.9116 -20.0000
v  -19.4883 2.0884 -20.0000
v  20.5117 2.0884 -20.0000
v  20.5117 27.9116 -20.0000
v  17.9096 27.2615 10.0000
v  17.9096 22.1059 10.0000
v  -16.8862 27.2615 10.0000
v  -16.8862 22.1059 10.0000
v  17.9096 20.8057 10.0000
v  17.9096 15.6501 10.0000
v  -16.8862 20.8057 10.0000
v  -16.8862 15.6501 10.0000
v  17.9096 14.3499 10.0000
v  17.9096 9.1943 10.0000
v  -16.8862 14.3499 10.0000
v  -16.8862 9.1943 10.0000
v  17.9096 7.8941 10.0000
v  17.9096 2.7385 10.0000
v  -16.8862 7.8941 10.0000
v  -16.8862 2.7385 10.0000
# 148 vertices

vn 0.0000 -1.0000 -0.0000
vn 0.0000 1.0000 -0.0000
vn 0.0000 0.0000 1.0000
vn 1.0000 0.0000 -0.0000
vn 0.0000 0.0000 -1.0000
vn -1.0000 0.0000 -0.0000
vn -0.0000 -1.0000 -0.0000
# 7 vertex normals

vt 0.0488 0.0762 0.0000
vt 0.9512 0.0762 0.0000
vt 0.9512 0.9238 0.0000
vt 0.0488 0.9238 0.0000
vt 0.9512 0.5000 0.0000
vt 0.0488 0.5000 0.0000
vt 0.0488 0.2848 0.0000
vt 0.9512 0.2848 0.0000
vt 0.0762 0.5000 0.0000
vt 0.9238 0.5000 0.0000
vt 0.9238 0.7152 0.0000
vt 0.0762 0.7152 0.0000
vt 0.0000 0.0762 0.0000
vt 0.0000 0.9238 0.0000
vt 1.0000 0.9238 0.0000
vt 1.0000 0.0762 0.0000
vt 1.0000 0.5000 0.0000
vt 1.0000 0.2848 0.0000
vt 0.0000 0.5000 0.0000
vt 0.0488 0.7152 0.0000
vt 0.0000 0.7152 0.0000
vt 0.9512 1.0000 0.0000
vt 0.0488 1.0000 0.0000
vt 0.0488 0.9472 0.0000
vt 0.9512 0.9472 0.0000
vt 0.0488 0.0000 0.0000
vt 0.9512 0.0000 0.0000
vt 0.9512 0.0528 0.0000
vt 0.0488 0.0528 0.0000
vt 0.0762 1.0000 0.0000
vt 0.0762 0.9472 0.0000
vt 0.9238 0.9472 0.0000
vt 0.9238 1.0000 0.0000
vt 0.9238 0.0000 0.0000
vt 0.9238 0.0528 0.0000
vt 0.0762 0.0528 0.0000
vt 0.0762 0.0000 0.0000
vt 1.0000 1.0000 0.0000
vt 1.0000 0.9472 0.0000
vt 1.0000 0.0000 0.0000
vt 1.0000 0.0528 0.0000
vt 0.0000 0.0000 0.0000
vt 0.0000 0.0528 0.0000
vt 0.0000 1.0000 0.0000
vt 0.0000 0.9472 0.0000
vt 0.9238 0.2848 0.0000
vt 0.0488 0.9304 0.0000
vt 0.9512 0.9304 0.0000
vt 0.9512 0.7152 0.0000
vt 0.9512 0.0696 0.0000
vt 0.0488 0.0696 0.0000
vt 0.9238 0.0696 0.0000
vt 0.0762 0.0696 0.0000
vt 0.0762 0.2848 0.0000
vt 0.0762 0.9304 0.0000
vt 0.9238 0.9304 0.0000
vt 1.0000 0.9304 0.0000
vt 1.0000 0.7152 0.0000
vt 1.0000 0.0696 0.0000
vt 0.0000 0.0696 0.0000
vt 0.0000 0.2848 0.0000
vt 0.0000 0.9304 0.0000
# 62 texture coords

g kastje
usemtl wire_143225087
s 2
f 1/1/1 2/2/1 3/3/1 4/4/1 
s 4
f 5/3/2 6/4/2 7/1/2 8/2/2 
s 8
f 9/5/3 10/6/3 11/7/3 12/8/3 
s 16
f 13/9/4 14/10/4 15/11/4 16/12/4 
s 32
f 17/5/5 18/6/5 19/7/5 20/8/5 
s 64
f 21/9/6 22/10/6 23/11/6 24/12/6 
s 2
f 25/13/1 1/1/1 4/4/1 26/14/1 
f 27/15/1 3/3/1 2/2/1 28/16/1 
s 4
f 29/15/2 5/3/2 8/2/2 30/16/2 
f 31/13/2 7/1/2 6/4/2 32/14/2 
s 8
f 33/17/3 34/5/3 35/8/3 36/18/3 
f 37/19/3 38/6/3 39/20/3 40/21/3 
s 32
f 41/17/5 17/5/5 20/8/5 42/18/5 
f 43/19/5 18/6/5 44/20/5 45/21/5 
s 8
f 46/22/3 47/23/3 48/24/3 49/25/3 
f 50/26/3 51/27/3 52/28/3 53/29/3 
s 16
f 30/30/4 54/31/4 55/32/4 29/33/4 
f 26/34/4 56/35/4 57/36/4 25/37/4 
s 32
f 58/22/5 59/23/5 60/24/5 61/25/5 
f 62/26/5 63/27/5 64/28/5 65/29/5 
s 64
f 32/30/6 66/31/6 67/32/6 31/33/6 
f 28/34/6 68/35/6 69/36/6 27/37/6 
s 8
f 70/38/3 46/22/3 49/25/3 71/39/3 
f 51/27/3 72/40/3 73/41/3 52/28/3 
f 74/42/3 50/26/3 53/29/3 75/43/3 
f 47/23/3 76/44/3 77/45/3 48/24/3 
s 32
f 78/38/5 58/22/5 61/25/5 79/39/5 
f 63/27/5 80/40/5 81/41/5 64/28/5 
f 82/42/5 62/26/5 65/29/5 83/43/5 
f 59/23/5 84/44/5 85/45/5 60/24/5 
s 2
f 51/26/1 50/27/1 2/2/1 1/1/1 
f 63/22/1 62/23/1 4/4/1 3/3/1 
s 4
f 59/22/2 58/23/2 6/4/2 5/3/2 
f 47/26/2 46/27/2 8/2/2 7/1/2 
s 16
f 33/19/4 13/9/4 16/12/4 86/21/4 
f 43/17/4 14/10/4 87/46/4 88/18/4 
s 64
f 41/19/6 21/9/6 24/12/6 89/21/6 
f 37/17/6 22/10/6 90/46/6 91/18/6 
s 2
f 72/42/1 51/26/1 1/1/1 25/13/1 
f 62/23/1 82/44/1 26/14/1 4/4/1 
f 80/38/1 63/22/1 3/3/1 27/15/1 
f 50/27/1 74/40/1 28/16/1 2/2/1 
s 4
f 84/38/2 59/22/2 5/3/2 29/15/2 
f 46/27/2 70/40/2 30/16/2 8/2/2 
f 76/42/2 47/26/2 7/1/2 31/13/2 
f 58/23/2 78/44/2 32/14/2 6/4/2 
s 16
f 70/44/4 71/45/4 54/31/4 30/30/4 
f 85/39/4 84/38/4 29/33/4 55/32/4 
f 82/40/4 83/41/4 56/35/4 26/34/4 
f 73/43/4 72/42/4 25/37/4 57/36/4 
s 64
f 78/44/6 79/45/6 66/31/6 32/30/6 
f 77/39/6 76/38/6 31/33/6 67/32/6 
f 74/40/6 75/41/6 68/35/6 28/34/6 
f 81/43/6 80/42/6 27/37/6 69/36/6 
s 8
f 49/25/3 48/24/3 92/47/3 93/48/3 
f 94/48/3 95/47/3 96/20/3 97/49/3 
f 98/49/3 99/20/3 100/6/3 101/5/3 
f 53/29/3 52/28/3 102/50/3 103/51/3 
f 104/51/3 105/50/3 106/8/3 107/7/3 
s 16
f 57/36/4 56/35/4 108/52/4 109/53/4 
f 109/53/4 108/52/4 87/46/4 110/54/4 
f 110/54/4 87/46/4 14/10/4 13/9/4 
f 55/32/4 54/31/4 111/55/4 112/56/4 
f 112/56/4 111/55/4 16/12/4 15/11/4 
s 32
f 61/25/5 60/24/5 113/47/5 114/48/5 
f 114/48/5 113/47/5 44/20/5 115/49/5 
f 115/49/5 44/20/5 18/6/5 17/5/5 
f 65/29/5 64/28/5 116/50/5 117/51/5 
f 117/51/5 116/50/5 20/8/5 19/7/5 
s 64
f 69/36/6 68/35/6 118/52/6 119/53/6 
f 119/53/6 118/52/6 90/46/6 120/54/6 
f 120/54/6 90/46/6 22/10/6 21/9/6 
f 67/32/6 66/31/6 121/55/6 122/56/6 
f 122/56/6 121/55/6 24/12/6 23/11/6 
s 8
f 71/39/3 49/25/3 93/48/3 123/57/3 
f 123/57/3 93/48/3 124/49/3 86/58/3 
f 86/58/3 124/49/3 34/5/3 33/17/3 
f 52/28/3 73/41/3 125/59/3 102/50/3 
f 102/50/3 125/59/3 36/18/3 35/8/3 
f 75/43/3 53/29/3 103/51/3 126/60/3 
f 126/60/3 103/51/3 127/7/3 91/61/3 
f 91/61/3 127/7/3 38/6/3 37/19/3 
f 48/24/3 77/45/3 128/62/3 92/47/3 
f 92/47/3 128/62/3 40/21/3 39/20/3 
s 32
f 79/39/5 61/25/5 114/48/5 129/57/5 
f 129/57/5 114/48/5 115/49/5 89/58/5 
f 89/58/5 115/49/5 17/5/5 41/17/5 
f 64/28/5 81/41/5 130/59/5 116/50/5 
f 116/50/5 130/59/5 42/18/5 20/8/5 
f 83/43/5 65/29/5 117/51/5 131/60/5 
f 131/60/5 117/51/5 19/7/5 88/61/5 
f 88/61/5 19/7/5 18/6/5 43/19/5 
f 60/24/5 85/45/5 132/62/5 113/47/5 
f 113/47/5 132/62/5 45/21/5 44/20/5 
s 16
f 73/43/4 57/36/4 109/53/4 125/60/4 
f 125/60/4 109/53/4 110/54/4 36/61/4 
f 36/61/4 110/54/4 13/9/4 33/19/4 
f 54/31/4 71/45/4 123/62/4 111/55/4 
f 111/55/4 123/62/4 86/21/4 16/12/4 
f 85/39/4 55/32/4 112/56/4 132/57/4 
f 132/57/4 112/56/4 15/11/4 45/58/4 
f 45/58/4 15/11/4 14/10/4 43/17/4 
f 56/35/4 83/41/4 131/59/4 108/52/4 
f 108/52/4 131/59/4 88/18/4 87/46/4 
s 64
f 81/43/6 69/36/6 119/53/6 130/60/6 
f 130/60/6 119/53/6 120/54/6 42/61/6 
f 42/61/6 120/54/6 21/9/6 41/19/6 
f 66/31/6 79/45/6 129/62/6 121/55/6 
f 121/55/6 129/62/6 89/21/6 24/12/6 
f 77/39/6 67/32/6 122/56/6 128/57/6 
f 128/57/6 122/56/6 23/11/6 40/58/6 
f 40/58/6 23/11/6 22/10/6 37/17/6 
f 68/35/6 75/41/6 126/59/6 118/52/6 
f 118/52/6 126/59/6 91/18/6 90/46/6 
s off
f 124/49/3 93/48/3 133/48/3 134/49/3 
f 93/48/3 92/47/3 135/47/3 133/48/3 
f 92/47/3 39/20/3 136/20/3 135/47/3 
f 39/20/3 124/49/3 134/49/3 136/20/3 
f 34/5/3 124/49/3 137/49/3 138/5/3 
f 124/49/3 39/20/3 139/20/3 137/49/3 
f 39/20/3 38/6/3 140/6/3 139/20/3 
f 38/6/3 34/5/3 138/5/3 140/6/3 
f 35/8/3 34/5/3 141/5/3 142/8/3 
f 34/5/3 38/6/3 143/6/3 141/5/3 
f 38/6/3 127/7/3 144/7/3 143/6/3 
f 127/7/3 35/8/3 142/8/3 144/7/3 
f 102/50/3 35/8/3 145/8/3 146/50/3 
f 35/8/3 127/7/3 147/7/3 145/8/3 
f 127/7/3 103/51/3 148/51/3 147/7/3 
f 103/51/3 102/50/3 146/50/3 148/51/3 
f 142/8/6 141/5/6 9/5/6 12/8/6 
f 141/5/1 143/6/1 10/6/1 9/5/1 
f 143/6/4 144/7/4 11/7/4 10/6/4 
f 144/7/2 142/8/2 12/8/2 11/7/2 
f 134/49/6 133/48/6 94/48/6 97/49/6 
f 133/48/7 135/47/7 95/47/7 94/48/7 
f 135/47/4 136/20/4 96/20/4 95/47/4 
f 136/20/2 134/49/2 97/49/2 96/20/2 
f 138/5/6 137/49/6 98/49/6 101/5/6 
f 137/49/7 139/20/7 99/20/7 98/49/7 
f 139/20/4 140/6/4 100/6/4 99/20/4 
f 140/6/2 138/5/2 101/5/2 100/6/2 
f 146/50/6 145/8/6 106/8/6 105/50/6 
f 145/8/7 147/7/7 107/7/7 106/8/7 
f 147/7/4 148/51/4 104/51/4 107/7/4 
f 148/51/2 146/50/2 105/50/2 104/51/2 
# 146 polygons

#
# object lade_1
#

v  -16.7685 2.8626 10.9715
v  -16.7685 2.8626 10.0914
v  17.7234 2.8626 10.0914
v  17.7234 2.8626 10.9715
v  -16.7685 7.7620 10.9715
v  17.7234 7.7620 10.9715
v  17.7234 7.7620 10.0914
v  -16.7685 7.7620 10.0914
v  17.4225 3.1635 -17.2689
v  -16.4676 3.1635 -17.2689
v  -16.4676 7.4611 -17.2689
v  17.4225 7.4611 -17.2689
v  -16.4676 3.1635 10.0914
v  17.4225 3.1635 10.0914
v  -16.4676 7.4611 10.0914
v  17.4225 7.4611 10.0914
# 16 vertices

vn 0.0000 -1.0000 -0.0000
vn 0.0000 1.0000 -0.0000
vn 0.0000 0.0000 1.0000
vn 1.0000 0.0000 -0.0000
vn 0.0000 0.0000 -1.0000
vn -1.0000 0.0000 -0.0000
# 6 vertex normals

vt 1.0000 0.0000 0.0000
vt 1.0000 1.0000 0.0000
vt 0.0000 1.0000 0.0000
vt 0.0000 0.0000 0.0000
# 4 texture coords

g lade_1
usemtl wire_184155229
s 2
f 149/63/8 150/64/8 151/65/8 152/66/8 
s 4
f 153/66/9 154/63/9 155/64/9 156/65/9 
s 8
f 149/66/10 152/63/10 154/64/10 153/65/10 
s 16
f 152/66/11 151/63/11 155/64/11 154/65/11 
s 32
f 157/66/12 158/63/12 159/64/12 160/65/12 
s 64
f 150/66/13 149/63/13 153/64/13 156/65/13 
s off
f 151/66/12 150/63/12 161/63/12 162/66/12 
f 150/63/12 156/64/12 163/64/12 161/63/12 
f 156/64/12 155/65/12 164/65/12 163/64/12 
f 155/65/12 151/66/12 162/66/12 164/65/12 
f 162/66/8 161/63/8 158/63/8 157/66/8 
f 161/63/13 163/64/13 159/64/13 158/63/13 
f 164/65/11 162/66/11 157/66/11 160/65/11 
# 13 polygons

#
# object lade_2
#

v  -16.7685 9.4885 10.9715
v  -16.7685 9.4885 10.0914
v  17.7234 9.4885 10.0914
v  17.7234 9.4885 10.9715
v  -16.7685 14.3879 10.9715
v  17.7234 14.3879 10.9715
v  17.7234 14.3879 10.0914
v  -16.7685 14.3879 10.0914
v  17.4225 9.7894 -17.2689
v  -16.4676 9.7894 -17.2689
v  -16.4676 14.0870 -17.2689
v  17.4225 14.0870 -17.2689
v  -16.4676 9.7894 10.0914
v  17.4225 9.7894 10.0914
v  -16.4676 14.0870 10.0914
v  17.4225 14.0870 10.0914
# 16 vertices

vn 0.0000 -1.0000 -0.0000
vn 0.0000 1.0000 -0.0000
vn 0.0000 -0.0000 1.0000
vn 1.0000 0.0000 -0.0000
vn 0.0000 0.0000 -1.0000
vn -1.0000 0.0000 -0.0000
vn 0.0000 -1.0000 0.0000
# 7 vertex normals

vt 1.0000 0.0000 0.0000
vt 1.0000 1.0000 0.0000
vt 0.0000 1.0000 0.0000
vt 0.0000 0.0000 0.0000
# 4 texture coords

g lade_2
usemtl wire_184155229
s 2
f 165/67/14 166/68/14 167/69/14 168/70/14 
s 4
f 169/70/15 170/67/15 171/68/15 172/69/15 
s 8
f 165/70/16 168/67/16 170/68/16 169/69/16 
s 16
f 168/70/17 167/67/17 171/68/17 170/69/17 
s 32
f 173/70/18 174/67/18 175/68/18 176/69/18 
s 64
f 166/70/19 165/67/19 169/68/19 172/69/19 
s off
f 167/70/18 166/67/18 177/67/18 178/70/18 
f 166/67/18 172/68/18 179/68/18 177/67/18 
f 172/68/18 171/69/18 180/69/18 179/68/18 
f 171/69/18 167/70/18 178/70/18 180/69/18 
f 178/70/20 177/67/20 174/67/20 173/70/20 
f 177/67/19 179/68/19 175/68/19 174/67/19 
f 180/69/17 178/70/17 173/70/17 176/69/17 
# 13 polygons

#
# object lade_3
#

v  -16.7685 20.8494 10.9715
v  17.7234 20.8494 10.9715
v  17.7234 20.8494 10.0914
v  -16.7685 20.8494 10.0914
v  -16.7685 15.9500 10.9715
v  17.7234 15.9500 10.9715
v  17.7234 15.9500 10.0914
v  17.4225 16.2509 -17.2689
v  -16.4676 16.2509 -17.2689
v  -16.4676 20.5485 -17.2689
v  17.4225 20.5485 -17.2689
v  17.4225 20.5485 10.0914
v  -16.4676 20.5485 10.0914
v  17.4225 16.2509 10.0914
v  -16.4676 16.2509 10.0914
# 15 vertices

vn 0.0000 1.0000 -0.0000
vn 0.0000 -0.0000 1.0000
vn 1.0000 0.0000 -0.0000
vn 0.0000 0.0000 -1.0000
vn 0.0000 -1.0000 -0.0000
vn -1.0000 0.0000 -0.0000
# 6 vertex normals

vt 0.0000 0.0000 0.0000
vt 1.0000 0.0000 0.0000
vt 1.0000 1.0000 0.0000
vt 0.0000 1.0000 0.0000
# 4 texture coords

g lade_3
usemtl wire_184155229
s 4
f 181/71/21 182/72/21 183/73/21 184/74/21 
s 8
f 185/71/22 186/72/22 182/73/22 181/74/22 
s 16
f 186/71/23 187/72/23 183/73/23 182/74/23 
s 32
f 188/71/24 189/72/24 190/73/24 191/74/24 
s off
f 184/73/24 183/74/24 192/74/24 193/73/24 
f 183/74/24 187/71/24 194/71/24 192/74/24 
f 194/71/25 195/72/25 189/72/25 188/71/25 
f 195/72/26 193/73/26 190/73/26 189/72/26 
f 192/74/23 194/71/23 188/71/23 191/74/23 
# 9 polygons

#
# object lade_4
#

v  -16.7685 21.6957 10.9715
v  -16.7685 21.6957 10.0914
v  17.7234 21.6957 10.0914
v  17.7234 21.6957 10.9715
v  -16.7685 26.5951 10.9715
v  17.7234 26.5951 10.9715
v  17.7234 26.5951 10.0914
v  -16.7685 26.5951 10.0914
v  17.4225 21.9966 -17.2689
v  -16.4676 21.9966 -17.2689
v  -16.4676 26.2942 -17.2689
v  17.4225 26.2942 -17.2689
v  -16.4676 21.9966 10.0914
v  17.4225 21.9966 10.0914
v  -16.4676 26.2942 10.0914
v  17.4225 26.2942 10.0914
# 16 vertices

vn 0.0000 -1.0000 -0.0000
vn 0.0000 1.0000 -0.0000
vn 0.0000 0.0000 1.0000
vn 1.0000 0.0000 -0.0000
vn 0.0000 0.0000 -1.0000
vn -1.0000 0.0000 -0.0000
# 6 vertex normals

vt 1.0000 0.0000 0.0000
vt 1.0000 1.0000 0.0000
vt 0.0000 1.0000 0.0000
vt 0.0000 0.0000 0.0000
# 4 texture coords

g lade_4
usemtl wire_184155229
s 2
f 196/75/27 197/76/27 198/77/27 199/78/27 
s 4
f 200/78/28 201/75/28 202/76/28 203/77/28 
s 8
f 196/78/29 199/75/29 201/76/29 200/77/29 
s 16
f 199/78/30 198/75/30 202/76/30 201/77/30 
s 32
f 204/78/31 205/75/31 206/76/31 207/77/31 
s 64
f 197/78/32 196/75/32 200/76/32 203/77/32 
s off
f 198/78/31 197/75/31 208/75/31 209/78/31 
f 197/75/31 203/76/31 210/76/31 208/75/31 
f 203/76/31 202/77/31 211/77/31 210/76/31 
f 202/77/31 198/78/31 209/78/31 211/77/31 
f 209/78/27 208/75/27 205/75/27 204/78/27 
f 208/75/32 210/76/32 206/76/32 205/75/32 
f 211/77/30 209/78/30 204/78/30 207/77/30 
# 13 polygons

